<?xml version="1.0" encoding="UTF-8" standalone="no"?>
<svg
   xmlns:dc="http://purl.org/dc/elements/1.1/"
   xmlns:cc="http://creativecommons.org/ns#"
   xmlns:rdf="http://www.w3.org/1999/02/22-rdf-syntax-ns#"
   xmlns:svg="http://www.w3.org/2000/svg"
   xmlns="http://www.w3.org/2000/svg"
   xmlns:sodipodi="http://sodipodi.sourceforge.net/DTD/sodipodi-0.dtd"
   xmlns:inkscape="http://www.inkscape.org/namespaces/inkscape"
   width="800pt"
   height="607pt"
   viewBox="0 0 800 607"
   version="1.1"
   id="svg2"
   inkscape:version="0.91 r13725"
   sodipodi:docname="logo.svg">
  <metadata
     id="metadata32">
    <rdf:RDF>
      <cc:Work
         rdf:about="">
        <dc:format>image/svg+xml</dc:format>
        <dc:type
           rdf:resource="http://purl.org/dc/dcmitype/StillImage" />
      </cc:Work>
    </rdf:RDF>
  </metadata>
  <defs
     id="defs30" />
  <sodipodi:namedview
     pagecolor="#ffffff"
     bordercolor="#666666"
     borderopacity="1"
     objecttolerance="10"
     gridtolerance="10"
     guidetolerance="10"
     inkscape:pageopacity="0"
     inkscape:pageshadow="2"
     inkscape:window-width="1348"
     inkscape:window-height="802"
     id="namedview28"
     showgrid="false"
     inkscape:zoom="0.274"
     inkscape:cx="500"
     inkscape:cy="379.375"
     inkscape:window-x="0"
     inkscape:window-y="23"
     inkscape:window-maximized="0"
     inkscape:current-layer="svg2" />
  <path
     fill="#8f8065"
     d=" M 535.10 26.11 C 541.23 16.66 549.26 8.69 556.59 0.20 C 558.98 16.92 561.98 33.57 566.08 49.96 C 574.59 83.63 587.58 117.03 609.96 144.01 C 617.55 153.40 626.94 161.06 635.07 169.94 C 647.62 183.40 658.53 198.36 667.83 214.23 C 686.82 246.67 699.04 282.56 708.41 318.81 C 719.09 359.37 726.40 400.75 737.59 441.19 C 743.90 463.24 751.66 484.85 759.74 506.31 C 772.31 540.20 786.14 573.60 799.92 607.00 L 0.00 607.00 L 0.00 605.99 L 0.04 606.91 C 22.56 588.16 42.87 566.58 58.87 541.97 C 82.21 506.71 95.86 466.02 104.60 424.90 C 114.59 378.39 119.00 330.85 129.74 284.49 C 137.70 250.15 150.04 216.34 170.22 187.21 C 174.76 180.16 180.88 174.11 184.16 166.29 C 188.81 155.45 190.45 143.60 191.27 131.91 C 193.77 94.53 187.91 57.27 187.96 19.91 C 199.73 35.48 212.86 50.02 223.60 66.35 C 241.38 92.85 252.06 123.34 259.63 154.14 C 306.30 143.87 354.33 141.35 401.99 142.45 C 430.93 143.14 459.83 145.33 488.60 148.57 C 495.55 124.09 502.84 99.69 511.60 75.78 C 518.04 58.63 524.98 41.47 535.10 26.11 Z"
     id="path6" />
  <path
     fill="#c3b2a2"
     d=" M 261.96 177.23 C 274.54 197.87 287.47 218.43 303.15 236.90 C 314.92 250.79 328.17 263.82 344.08 272.90 C 356.71 280.10 371.54 283.98 386.08 281.91 C 404.08 279.42 419.90 269.09 433.00 256.98 C 452.84 238.49 467.98 215.70 481.97 192.65 C 480.34 209.59 477.69 226.50 473.30 242.95 C 472.61 245.32 471.90 247.69 471.19 250.06 C 468.79 258.24 465.32 266.12 460.67 273.28 C 469.65 270.52 479.60 269.80 488.43 273.50 C 498.21 277.27 506.03 284.44 514.04 290.94 C 521.95 297.38 531.21 301.75 540.28 306.26 C 505.78 302.90 471.36 298.60 436.88 294.93 C 435.97 294.88 435.07 294.98 434.19 295.23 C 429.59 299.93 425.40 305.02 421.29 310.15 C 418.31 313.94 415.08 317.52 412.07 321.28 C 415.88 338.64 425.64 354.30 438.33 366.59 C 455.48 383.48 476.72 395.29 497.76 406.60 C 500.33 407.97 502.87 409.43 505.52 410.66 C 481.95 410.84 458.18 411.26 435.05 416.34 C 415.92 420.43 396.99 428.02 382.42 441.41 C 366.26 456.02 356.90 476.29 349.55 496.41 C 347.92 493.60 346.46 490.70 344.84 487.90 C 347.57 478.80 351.02 469.63 357.27 462.32 C 364.76 453.40 372.81 444.83 379.05 434.94 C 380.73 430.50 379.93 425.57 379.89 420.94 C 378.07 402.23 373.57 383.88 368.08 365.93 C 363.27 350.59 357.56 335.45 349.80 321.33 C 332.76 336.41 319.33 356.38 314.98 378.97 C 309.79 404.55 315.57 430.89 324.47 454.96 L 325.07 457.22 C 315.47 445.49 305.31 434.15 293.82 424.22 C 272.83 406.04 248.58 390.95 221.64 383.53 C 220.36 383.01 218.61 383.12 217.78 381.87 C 222.87 380.40 227.94 378.87 232.93 377.10 C 247.50 371.99 261.72 365.46 274.11 356.13 C 289.23 344.92 301.28 330.10 311.28 314.27 C 313.13 312.13 310.98 309.62 310.35 307.44 C 308.32 302.49 306.24 297.55 303.62 292.88 C 302.29 290.53 300.91 288.21 299.32 286.03 C 295.93 281.80 291.94 277.63 286.71 275.81 C 284.51 275.19 282.22 275.10 279.96 275.10 C 259.53 274.95 239.10 274.78 218.67 274.29 C 224.77 272.58 230.94 271.11 236.92 269.01 C 246.69 265.78 256.06 261.44 265.88 258.37 C 262.33 242.92 261.38 227.04 261.18 211.23 C 261.11 208.21 261.11 205.18 261.12 202.16 C 261.18 193.84 261.21 185.51 261.96 177.23 Z"
     id="path8" />
  <path
     fill="#17312f"
     d=" M 222.02 196.96 C 235.20 194.87 248.90 196.91 261.12 202.16 C 261.11 205.18 261.11 208.21 261.18 211.23 C 247.45 207.21 232.26 208.18 219.30 214.32 C 203.26 221.74 190.91 235.72 183.50 251.58 C 172.90 274.22 171.61 300.90 179.28 324.62 C 185.06 342.36 196.34 358.70 212.29 368.69 C 218.59 372.73 225.68 375.34 232.93 377.10 C 227.94 378.87 222.87 380.40 217.78 381.87 C 216.49 382.29 215.19 382.28 213.90 381.84 C 196.92 377.35 181.90 366.62 171.26 352.75 C 156.45 333.69 149.44 309.08 150.69 285.08 C 151.68 260.39 161.67 235.81 179.48 218.47 C 190.99 207.17 205.97 199.19 222.02 196.96 Z"
     id="path10" />
  <path
     fill="#c48a47"
     d=" M 219.30 214.32 C 232.26 208.18 247.45 207.21 261.18 211.23 C 261.38 227.04 262.33 242.92 265.88 258.37 C 256.06 261.44 246.69 265.78 236.92 269.01 C 230.94 271.11 224.77 272.58 218.67 274.29 C 239.10 274.78 259.53 274.95 279.96 275.10 C 282.22 275.10 284.51 275.19 286.71 275.81 C 264.85 275.90 242.99 275.76 221.14 275.82 C 216.07 286.99 216.17 300.36 221.51 311.42 C 227.73 324.68 240.74 334.20 255.04 336.96 C 266.93 339.51 279.73 337.35 290.23 331.25 C 299.41 325.95 306.72 317.43 310.35 307.44 C 310.98 309.62 313.13 312.13 311.28 314.27 C 301.28 330.10 289.23 344.92 274.11 356.13 C 261.72 365.46 247.50 371.99 232.93 377.10 C 225.68 375.34 218.59 372.73 212.29 368.69 C 196.34 358.70 185.06 342.36 179.28 324.62 C 171.61 300.90 172.90 274.22 183.50 251.58 C 190.91 235.72 203.26 221.74 219.30 214.32 Z"
     id="path12" />
  <path
     fill="#17312f"
     d=" M 473.30 242.95 C 506.16 228.95 545.53 228.75 577.36 245.70 C 593.63 254.34 607.64 267.77 615.47 284.58 C 623.00 300.49 624.47 319.08 619.87 336.04 C 615.58 352.19 606.16 366.68 594.19 378.20 C 570.70 400.46 537.71 412.15 505.52 410.66 C 502.87 409.43 500.33 407.97 497.76 406.60 C 532.75 407.30 568.65 390.66 587.87 360.88 C 596.63 347.39 601.46 331.18 600.40 315.06 C 599.52 297.92 591.91 281.32 579.81 269.20 C 567.47 256.41 550.91 248.15 533.62 244.51 C 512.87 240.13 490.87 242.27 471.19 250.06 C 471.90 247.69 472.61 245.32 473.30 242.95 Z"
     id="path14" />
  <path
     fill="#c48a47"
     d=" M 471.19 250.06 C 490.87 242.27 512.87 240.13 533.62 244.51 C 550.91 248.15 567.47 256.41 579.81 269.20 C 591.91 281.32 599.52 297.92 600.40 315.06 C 601.46 331.18 596.63 347.39 587.87 360.88 C 568.65 390.66 532.75 407.30 497.76 406.60 C 476.72 395.29 455.48 383.48 438.33 366.59 C 425.64 354.30 415.88 338.64 412.07 321.28 C 415.08 317.52 418.31 313.94 421.29 310.15 C 423.81 327.00 434.63 342.20 449.44 350.52 C 463.22 358.42 480.28 360.20 495.42 355.44 C 516.66 349.11 533.29 329.39 535.22 307.19 C 501.54 303.23 467.85 299.33 434.19 295.23 C 435.07 294.98 435.97 294.88 436.88 294.93 C 471.36 298.60 505.78 302.90 540.28 306.26 C 531.21 301.75 521.95 297.38 514.04 290.94 C 506.03 284.44 498.21 277.27 488.43 273.50 C 479.60 269.80 469.65 270.52 460.67 273.28 C 465.32 266.12 468.79 258.24 471.19 250.06 Z"
     id="path16" />
  <path
     fill="#17312f"
     d=" M 221.14 275.82 C 242.99 275.76 264.85 275.90 286.71 275.81 C 291.94 277.63 295.93 281.80 299.32 286.03 C 293.36 286.04 287.39 286.01 281.43 286.04 C 281.25 289.82 280.17 293.75 277.27 296.36 C 273.81 299.90 267.63 300.23 263.90 296.91 C 260.53 294.33 259.48 290.00 258.86 286.02 C 249.47 286.04 240.09 286.01 230.70 286.04 C 230.02 298.21 235.04 310.68 244.51 318.46 C 252.80 325.42 264.41 328.54 274.99 325.90 C 290.38 322.60 302.06 308.36 303.62 292.88 C 306.24 297.55 308.32 302.49 310.35 307.44 C 306.72 317.43 299.41 325.95 290.23 331.25 C 279.73 337.35 266.93 339.51 255.04 336.96 C 240.74 334.20 227.73 324.68 221.51 311.42 C 216.17 300.36 216.07 286.99 221.14 275.82 Z"
     id="path18" />
  <path
     fill="#efdc54"
     d=" M 230.70 286.04 C 240.09 286.01 249.47 286.04 258.86 286.02 C 259.48 290.00 260.53 294.33 263.90 296.91 C 267.63 300.23 273.81 299.90 277.27 296.36 C 280.17 293.75 281.25 289.82 281.43 286.04 C 287.39 286.01 293.36 286.04 299.32 286.03 C 300.91 288.21 302.29 290.53 303.62 292.88 C 302.06 308.36 290.38 322.60 274.99 325.90 C 264.41 328.54 252.80 325.42 244.51 318.46 C 235.04 310.68 230.02 298.21 230.70 286.04 Z"
     id="path20" />
  <path
     fill="#17312f"
     d=" M 421.29 310.15 C 425.40 305.02 429.59 299.93 434.19 295.23 C 467.85 299.33 501.54 303.23 535.22 307.19 C 533.29 329.39 516.66 349.11 495.42 355.44 C 480.28 360.20 463.22 358.42 449.44 350.52 C 434.63 342.20 423.81 327.00 421.29 310.15 Z"
     id="path22" />
  <path
     fill="#efdc54"
     d=" M 430.96 301.55 C 440.31 302.64 449.59 304.29 458.96 305.22 C 461.10 310.73 465.87 315.45 471.95 316.04 C 477.71 316.87 483.55 313.90 486.74 309.13 C 497.15 310.74 507.58 312.21 518.04 313.49 C 516.26 322.53 510.23 330.36 503.29 336.22 C 491.82 345.72 475.38 348.65 461.35 343.67 C 443.71 337.82 431.08 320.09 430.96 301.55 Z"
     id="path24" />
  <path
     fill="#17312f"
     d=" M 314.98 378.97 C 319.33 356.38 332.76 336.41 349.80 321.33 C 357.56 335.45 363.27 350.59 368.08 365.93 C 373.57 383.88 378.07 402.23 379.89 420.94 C 379.93 425.57 380.73 430.50 379.05 434.94 C 372.81 444.83 364.76 453.40 357.27 462.32 C 351.02 469.63 347.57 478.80 344.84 487.90 C 344.05 490.66 343.25 493.42 342.41 496.18 C 335.74 482.75 329.52 469.08 324.47 454.96 C 315.57 430.89 309.79 404.55 314.98 378.97 Z"
     id="path26" />
</svg>
